<svg xmlns="http://www.w3.org/2000/svg" fill="#E4405F" viewBox="0 0 24 24" width="40px" height="40px">
  <path d="M7.75 2h8.5C19.98 2 22 4.02 22 7.75v8.5C22 19.98 19.98 22 16.25 22h-8.5C4.02 22 2 19.98 2 16.25v-8.5C2 4.02 4.02 2 7.75 2zm-.43 2C5.517 4 4 5.517 4 7.32v9.36C4 18.483 5.517 20 7.32 20h9.36c1.803 0 3.32-1.517 3.32-3.32V7.32C20 5.517 18.483 4 16.68 4H7.32zm9.3 1.14h.72a1.14 1.14 0 1 1 0 2.28h-.72a1.14 1.14 0 1 1 0-2.28zM12 7.6a4.4 4.4 0 1 1 0 8.8 4.4 4.4 0 0 1 0-8.8zm0 1.8a2.6 2.6 0 1 0 0 5.2 2.6 2.6 0 0 0 0-5.2z"/>
</svg>
